<svg xmlns="http://www.w3.org/2000/svg" xmlns:xlink="http://www.w3.org/1999/xlink" viewBox="0 0 522.99 86.84"><defs><style>.cls-1{font-size:47.32px;fill:#43b8fd;font-family:CenturyGothic-Bold, Century Gothic;font-weight:700;letter-spacing:-0.02em;}.cls-2,.cls-3{font-size:48.51px;letter-spacing:-0.02em;}.cls-3{fill:#58fdd9;}.cls-4{fill:url(#blokwise_blue);}.cls-5{fill:url(#blokwise_blue-2);}.cls-6{fill:url(#blokwise_blue-3);}.cls-7{fill:url(#blokwise_blue-4);}.cls-8{fill:url(#blokwise_blue-5);}.cls-9{fill:url(#blokwise_blue-6);}.cls-10{fill:url(#blokwise_blue-7);}</style><linearGradient id="blokwise_blue" x1="-23.87" y1="48.6" x2="89.58" y2="-7.83" gradientUnits="userSpaceOnUse"><stop offset="0" stop-color="#00b7ff"/><stop offset="1" stop-color="#00ffda"/></linearGradient><linearGradient id="blokwise_blue-2" x1="-23.24" y1="49.86" x2="90.21" y2="-6.57" xlink:href="#blokwise_blue"/><linearGradient id="blokwise_blue-3" x1="-13.79" y1="68.88" x2="99.67" y2="12.44" xlink:href="#blokwise_blue"/><linearGradient id="blokwise_blue-4" x1="-20.89" y1="54.59" x2="92.56" y2="-1.84" xlink:href="#blokwise_blue"/><linearGradient id="blokwise_blue-5" x1="-6.77" y1="82.98" x2="106.68" y2="26.54" xlink:href="#blokwise_blue"/><linearGradient id="blokwise_blue-6" x1="-6.79" y1="82.94" x2="106.66" y2="26.51" xlink:href="#blokwise_blue"/><linearGradient id="blokwise_blue-7" x1="-5.3" y1="85.94" x2="108.15" y2="29.5" xlink:href="#blokwise_blue"/></defs><g id="Ebene_2" data-name="Ebene 2"><g id="icon"><text class="cls-1" transform="translate(105.78 59.85)">blokwise<tspan class="cls-2" x="193.07" y="0">/</tspan><tspan class="cls-3" x="214.42" y="0">dynamic</tspan></text><polygon class="cls-4" points="8.68 17.42 38.79 34.85 38.82 0 8.68 17.42"/><polygon class="cls-5" points="41.94 34.85 71.98 17.4 42.01 0 41.94 34.85"/><polygon class="cls-6" points="40.13 40.02 0.36 16.94 0 17.56 39.75 40.62 39.65 86.84 40.36 86.84 40.46 40.65 80.26 17.56 79.91 16.94 40.13 40.02"/><polygon class="cls-7" points="4.39 59.29 34.31 42.02 4.39 24.74 4.39 59.29"/><polygon class="cls-8" points="36.12 44.45 6.34 61.64 36.12 78.83 36.12 44.45"/><polygon class="cls-9" points="75.58 24.65 45.59 41.96 75.58 59.28 75.58 24.65"/><polygon class="cls-10" points="43.61 78.84 73.45 61.59 43.68 44.34 43.61 78.84"/></g></g></svg>